<?xml version="1.0" encoding="UTF-8"?>
<svg width="76px" height="74px" viewBox="0 0 76 74" version="1.1" xmlns="http://www.w3.org/2000/svg" xmlns:xlink="http://www.w3.org/1999/xlink">
    <!-- Generator: Sketch 42 (36781) - http://www.bohemiancoding.com/sketch -->
    <title>document</title>
    <desc>Created with Sketch.</desc>
    <defs></defs>
    <g id="Page-1" stroke="none" stroke-width="1" fill="none" fill-rule="evenodd">
        <g id="document" fill-rule="nonzero" fill="#FFFFFF">
            <g id="Page-1">
                <g id="noun_674405_cc">
                    <path d="M44,52.8 C44,53.6 43.3,54.3 42.5,54.3 L12.3,54.3 C11.5,54.3 10.8,53.6 10.8,52.8 C10.8,52 11.5,51.3 12.3,51.3 L42.5,51.3 C43.3,51.3 44,52 44,52.8 Z M59.2,39.9 L12.2,39.9 C11.4,39.9 10.7,40.6 10.7,41.4 C10.7,42.2 11.4,42.9 12.2,42.9 L59.2,42.9 C60,42.9 60.7,42.2 60.7,41.4 C60.7,40.6 60.1,39.9 59.2,39.9 Z M59.2,28.5 L12.2,28.5 C11.4,28.5 10.7,29.2 10.7,30 C10.7,30.8 11.4,31.5 12.2,31.5 L59.2,31.5 C60,31.5 60.7,30.8 60.7,30 C60.7,29.2 60.1,28.5 59.2,28.5 Z M59.2,17.1 L12.2,17.1 C11.4,17.1 10.7,17.8 10.7,18.6 C10.7,19.4 11.4,20.1 12.2,20.1 L59.2,20.1 C60,20.1 60.7,19.4 60.7,18.6 C60.7,17.8 60.1,17.1 59.2,17.1 Z M42.2,67.7 L13.2,67.7 C8,67.7 3.8,63.5 3.8,58.3 L3.8,13.1 C3.8,7.9 8,3.7 13.2,3.7 L58.5,3.7 C63.7,3.7 67.9,7.9 67.9,13.1 L67.9,42.1 C67.9,42.9 68.6,43.6 69.4,43.6 C70.2,43.6 70.9,42.9 70.9,42.1 L70.9,13.1 C70.9,6.3 65.3,0.7 58.5,0.7 L13.1,0.7 C6.3,0.7 0.7,6.3 0.7,13.1 L0.7,58.4 C0.7,65.2 6.3,70.8 13.1,70.8 L42.1,70.8 C42.9,70.8 43.6,70.1 43.6,69.3 C43.6,68.5 43,67.7 42.2,67.7 Z M75.7,61.1 C75.7,68 70.1,73.6 63.2,73.6 C56.3,73.6 50.7,68 50.7,61.1 C50.7,54.2 56.3,48.6 63.2,48.6 C70.1,48.6 75.7,54.2 75.7,61.1 Z M69.5,56.7 C67.8,55 65,55 63.3,56.7 C61.6,55 58.8,55 57.1,56.7 C55.4,58.4 55.4,61.2 57.1,62.9 L63.3,69.1 L69.5,62.9 C71.2,61.2 71.2,58.4 69.5,56.7 Z" id="Shape"></path>
                </g>
            </g>
        </g>
    </g>
</svg>