<?xml version="1.0" encoding="UTF-8"?>
<svg width="88px" height="78px" viewBox="0 0 88 78" version="1.1" xmlns="http://www.w3.org/2000/svg" xmlns:xlink="http://www.w3.org/1999/xlink">
    <!-- Generator: Sketch 42 (36781) - http://www.bohemiancoding.com/sketch -->
    <title>gui</title>
    <desc>Created with Sketch.</desc>
    <defs></defs>
    <g id="Page-1" stroke="none" stroke-width="1" fill="none" fill-rule="evenodd">
        <g id="gui" transform="translate(0.000000, -1.000000)" fill-rule="nonzero" fill="#FFFFFF">
            <g id="Page-1">
                <g id="noun_629910_cc">
                    <g id="gui" transform="translate(0.000000, 0.637820)">
                        <path d="M4,0.36218 C1.8185959,0.36218 0,2.18078 0,4.36218 L0,54.36218 C0,56.54358 1.8185959,58.36218 4,58.36218 L34,58.36218 L34,63.36218 C34,65.45678 32.87273,66.36218 32,66.36218 L25,66.36218 C23.952831,66.362285 23.000105,67.315011 23,68.36218 L23,76.36218 C23.000105,77.409349 23.952831,78.362075 25,78.36218 L63,78.36218 C63.691999,78.362111 64.356889,77.946604 64.71875,77.36218 C66.350376,78.019107 68.13415,78.36218 70,78.36218 C77.700774,78.36218 84,72.19543 84,64.58093 L84,58.36218 C86.181404,58.36218 88,56.54358 88,54.36218 L88,4.36218 C88,2.18078 86.181404,0.36218 84,0.36218 L4,0.36218 Z M4,4.36218 L84,4.36218 L84,54.11218 C84,46.49758 77.700774,40.36218 70,40.36218 C62.299235,40.36218 56,46.49758 56,54.11218 L56,54.36218 L4,54.36218 L4,4.36218 Z M70,44.36218 C75.595242,44.36218 80,48.68658 80,54.11218 L80,64.58093 C80,70.00653 75.595242,74.36218 70,74.36218 C64.404771,74.36218 60,70.00653 60,64.58093 L60,54.11218 C60,48.68658 64.404771,44.36218 70,44.36218 Z M69.78125,48.33093 C68.7508578,48.4441601 67.9777056,49.3258248 68,50.36218 L68,56.17468 C67.989802,56.8959501 68.3687537,57.5668384 68.9917478,57.9304495 C69.6147418,58.2940606 70.3852582,58.2940606 71.0082522,57.9304495 C71.6312463,57.5668384 72.010198,56.8959501 72,56.17468 L72,50.36218 C72.0124076,49.7861876 71.7758491,49.2328167 71.3509071,48.8437853 C70.9259651,48.4547539 70.3539119,48.2678465 69.78125,48.33093 Z M38,58.36218 L50,58.36218 L50,63.36218 C49.999919,63.3726 49.999919,63.38301 50,63.39343 C50.04904,67.13703 52.567684,70.36218 56,70.36218 L57.28125,70.36218 C57.987369,71.863252 58.977941,73.211577 60.15625,74.36218 L27,74.36218 L27,70.36218 L32,70.36218 C35.432122,70.36218 38,67.13588 38,63.36218 L38,58.36218 Z M54,58.36218 L56,58.36218 L56,64.58093 C56,65.178947 56.049665,65.784309 56.125,66.36218 L56,66.36218 C55.132881,66.36218 54.040833,65.45808 54,63.36218 L54,63.33093 L54,58.36218 Z" id="Shape"></path>
                    </g>
                </g>
            </g>
        </g>
    </g>
</svg>