<?xml version="1.0" encoding="UTF-8"?>
<svg width="90px" height="70px" viewBox="0 0 90 70" version="1.1" xmlns="http://www.w3.org/2000/svg" xmlns:xlink="http://www.w3.org/1999/xlink">
    <!-- Generator: Sketch 42 (36781) - http://www.bohemiancoding.com/sketch -->
    <title>offline</title>
    <desc>Created with Sketch.</desc>
    <defs></defs>
    <g id="Page-1" stroke="none" stroke-width="1" fill="none" fill-rule="evenodd">
        <g id="noun_625409_cc" transform="translate(-5.000000, 0.000000)" fill-rule="nonzero" fill="#FFFFFF">
            <g id="offline" transform="translate(5.000000, 0.000000)">
                <path d="M78.6,0.7 L68.7,10.6 C45.8,1.4 18.7,6 0.2,24.6 L5.2,29.6 C20.9,13.9 43.6,9.5 63.3,16.2 L57.7,21.8 C41.2,17.4 23,21.6 10.1,34.5 L15.1,39.5 C25,29.6 38.7,25.6 51.6,27.7 L45.1,34.2 C36,34.2 27,37.6 20,44.5 L25,49.5 C28.4,46.1 32.5,43.7 36.9,42.4 L15,64.3 L18.5,67.8 L82.1,4.2 L78.6,0.7 Z" id="Shape"></path>
                <path d="M40,64.4 L45,69.4 L50,64.4 C47.2,61.6 42.8,61.6 40,64.4 Z" id="Shape"></path>
                <path d="M34.4,58.8 L35,59.4 C40.5,53.9 49.4,53.9 54.9,59.4 L59.9,54.4 C55.8,50.3 50.3,48.2 44.9,48.2 L34.4,58.8 Z" id="Shape"></path>
                <path d="M51.3,41.9 C56.3,43 61,45.5 64.9,49.4 L69.9,44.4 C66.1,40.6 61.7,37.9 57,36.2 L51.3,41.9 Z" id="Shape"></path>
                <path d="M62.4,30.8 C66.9,32.8 71.2,35.7 74.9,39.4 L79.9,34.4 C76.2,30.7 72.1,27.7 67.7,25.5 L62.4,30.8 Z" id="Shape"></path>
                <path d="M78,15.2 L72.9,20.3 C77.2,22.7 81.3,25.8 84.9,29.4 L89.9,24.4 C86.2,20.9 82.2,17.8 78,15.2 Z" id="Shape"></path>
            </g>
        </g>
    </g>
</svg>